{"title":"2010.07.25-MotoGP.10.USA.Race.BBC2_UK [TDMK1]","uid":5716162,"size":417951350,"categoryP":"other","categoryS":"other","magnet":"?xt=urn:btih:032b8123061007f5e7432b0eb68ac9dba0831674&amp;dn=2010.07.25-MotoGP.10.USA.Race.BBC2_UK+%5BTDMK1%5D&amp;tr=udp%3A%2F%2Ftracker.openbittorrent.com%3A80&amp;tr=udp%3A%2F%2Fopen.demonii.com%3A1337&amp;tr=udp%3A%2F%2Ftracker.coppersurfer.tk%3A6969&amp;tr=udp%3A%2F%2Fexodus.desync.com%3A6969","seeders":0,"leechers":1,"uploader":"VR","files":1,"time":1280108387,"description":"2010.07.25-MotoGP.10.USA.Race.BBC2_UK-TDMK1.m4v\n\nJennie Gow presents all the action from the ninth round of the season, held at Laguna Seca in California. Dani Pedrosa is aiming to win here for the second year in succession and close the gap on championship leader and fellow Spaniard Jorge Lorenzo. With commentary by Charlie Cox and Steve Parrish.\n\nNow encoded as 'MP4 All Play'... As a departure from the DivX files which I have uploaded in the past, I've made the decision to get with the 21st century &amp; start encoding with the following specs this year;\n\nMP4 - 640x352 - 800Kb/s H264 Video - 44.1KHz/128Kbps Stereo AAC Audio\n\nMy belief is this is the best all round setup, and hopefully you will agree!\n\nThis video will play on a computer with VLC, XBMC, XBox360, PS3, iPad all iPhones - enjoy the show... :)\n\nGeneral\nComplete name                    : 2010.07.25-MotoGP.10.USA.Race.BBC2_UK-TDMK1.m4v\nFormat                           : MPEG-4\nFormat profile                   : Base Media / Version 2\nCodec ID                         : mp42\nFile size                        : 399 MiB\nDuration                         : 59mn 27s\nOverall bit rate                 : 937 Kbps\nEncoded date                     : UTC 2010-07-25 22:10:50\nTagged date                      : UTC 2010-07-25 23:15:35\nWriting application              : HandBrake 0.9.4 2009112300\n\nVideo\nID                               : 1\nFormat                           : AVC\nFormat/Info                      : Advanced Video Codec\nFormat profile                   : &lt;a class=&quot;__cf_email__&quot; href=&quot;/cdn-cgi/l/email-protection&quot; data-cfemail=&quot;d895b9b1b69894ebf6e8&quot;&gt;[email&amp;#160;protected]&lt;/a&gt;&lt;script cf-hash='f9e31' type=&quot;text/javascript&quot;&gt;\n/* &lt;![CDATA[ */!function(){try{var t=&quot;currentScript&quot;in document?document.currentScript:function(){for(var t=document.getElementsByTagName(&quot;script&quot;),e=t.length;e--;)if(t[e].getAttribute(&quot;cf-hash&quot;))return t[e]}();if(t&amp;&amp;t.previousSibling){var e,r,n,i,c=t.previousSibling,a=c.getAttribute(&quot;data-cfemail&quot;);if(a){for(e=&quot;&quot;,r=parseInt(a.substr(0,2),16),n=2;a.length-n;n+=2)i=parseInt(a.substr(n,2),16)^r,e+=String.fromCharCode(i);e=document.createTextNode(e),c.parentNode.replaceChild(e,c)}}}catch(u){}}();/* ]]&gt; */&lt;/script&gt;\nFormat settings, CABAC           : Yes\nFormat settings, ReFrames        : 2 frames\nCodec ID                         : avc1\nCodec ID/Info                    : Advanced Video Coding\nDuration                         : 59mn 27s\nBit rate mode                    : Variable\nBit rate                         : 800 Kbps\nWidth                            : 640 pixels\nHeight                           : 352 pixels\nDisplay aspect ratio             : 16:9\nFrame rate mode                  : Variable\nFrame rate                       : 25.000 fps\nMinimum frame rate               : 12.498 fps\nMaximum frame rate               : 25.000 fps\nColor space                      : YUV\nChroma subsampling               : 4:2:0\nBit depth                        : 8 bits\nScan type                        : Progressive\nBits/(Pixel*Frame)               : 0.142\nStream size                      : 343 MiB (86%)\nWriting library                  : x264 core 79\nEncoding settings                : cabac=1 / ref=2 / deblock=1:0:0 / analyse=0x1:0x111 / me=hex / subme=6 / psy=1 / psy_rd=1.0:0.0 / mixed_ref=0 / me_range=16 / chroma_me=1 / trellis=0 / 8x8dct=0 / cqm=0 / deadzone=21,11 / chroma_qp_offset=-2 / threads=6 / nr=0 / decimate=1 / mbaff=0 / constrained_intra=0 / bframes=2 / b_pyramid=0 / b_adapt=1 / b_bias=0 / direct=1 / wpredb=0 / wpredp=2 / keyint=250 / keyint_min=25 / scenecut=40 / rc_lookahead=40 / rc=abr / mbtree=1 / bitrate=800 / ratetol=1.0 / qcomp=0.60 / qpmin=10 / qpmax=51 / qpstep=4 / ip_ratio=1.40 / aq=1:1.00\nEncoded date                     : UTC 2010-07-25 22:10:50\nTagged date                      : UTC 2010-07-25 23:15:35\nColor primaries                  : BT.601-6 525, BT.1358 525, BT.1700 NTSC, SMPTE 170M\nTransfer characteristics         : BT.709-5, BT.1361\nMatrix coefficients              : BT.601-6 525, BT.1358 525, BT.1700 NTSC, SMPTE 170M\n\nAudio\nID                               : 2\nFormat                           : AAC\nFormat/Info                      : Advanced Audio Codec\nFormat version                   : Version 4\nFormat profile                   : LC\nFormat settings, SBR             : No\nCodec ID                         : 40\nDuration                         : 59mn 27s\nBit rate mode                    : Variable\nBit rate                         : 128 Kbps\nMaximum bit rate                 : 153 Kbps\nChannel(s)                       : 2 channels\nChannel positions                : Front: L R\nSampling rate                    : 44.1 KHz\nStream size                      : 54.4 MiB (14%)\nEncoded date                     : UTC 2010-07-25 22:10:50\nTagged date                      : UTC 2010-07-25 23:15:35","torrent":{"xt":"urn:btih:032b8123061007f5e7432b0eb68ac9dba0831674","amp;dn":"2010.07.25-MotoGP.10.USA.Race.BBC2_UK+%5BTDMK1%5D","amp;tr":["udp%3A%2F%2Ftracker.openbittorrent.com%3A80","udp%3A%2F%2Fopen.demonii.com%3A1337","udp%3A%2F%2Ftracker.coppersurfer.tk%3A6969","udp%3A%2F%2Fexodus.desync.com%3A6969"],"infoHash":"032b8123061007f5e7432b0eb68ac9dba0831674","infoHashBuffer":{"type":"Buffer","data":[3,43,129,35,6,16,7,245,231,67,43,14,182,138,201,219,160,131,22,116]},"announce":[],"urlList":[]}}